<svg xmlns="http://www.w3.org/2000/svg" width="35" height="41" fill="none"><path fill="#2C2925" d="M25.511 37.741H4.253L0 9.58h12.402l1.525-1.805h7.059L25.51 37.74Z"/><path fill="#fff" d="m34.992 40.823-20.31-.338-3.94-29.324 15.633.26 5.219 4.108 3.398 25.294Z"/><path fill="#D3CFCA" d="m26.375 11.422.543 4.045 4.676.062-5.22-4.107Z"/><path fill="#2C2925" d="m26.909 15.393 4.854 1.391-.18-1.335-4.674-.056Z"/><path stroke="#106DB6" stroke-linecap="round" stroke-miterlimit="10" stroke-width="2.336" d="m17.083 20.512 10.902.172"/><path stroke="#A0A0A0" stroke-linecap="round" stroke-miterlimit="10" stroke-width="1.308" d="m17.513 24.38 12.275.173M17.856 27.39l12.361.172M18.285 30.4l12.276.172M18.629 33.408l12.275.172"/><path fill="#2C2925" d="m22.13 14.321.244 1.39 1.081-.718 5.352-13.497L27.48.823l-5.352 13.498Z"/><path stroke="#AAA197" stroke-linecap="round" stroke-miterlimit="10" stroke-width=".654" d="m6.327 8.963.362-.75c.358-.743 1.28-1.15 2.058-.91.78.242 1.12 1.04.761 1.783l-2.35 4.877c-.26.538-.927.833-1.491.659-.565-.175-.811-.754-.552-1.291l2.25-4.67a.729.729 0 0 1 .845-.372c.32.099.46.426.313.73l-1.614 3.35"/></svg>