<svg xmlns="http://www.w3.org/2000/svg" width="25" height="41" fill="none"><g clip-path="url(#a)"><path fill="#2D292B" d="M19.501 30.706H5.456v8.509h14.045v-8.509Z"/><path stroke="#AAA197" stroke-linecap="round" stroke-miterlimit="10" stroke-width=".893" d="M16.689 32.41h-8.42v5.1h8.42v-5.1Z"/><path fill="#D3CFCA" d="M13.635 20.835H11.32a18.917 18.917 0 0 1 0 7.078h2.314a22.61 22.61 0 0 1-.277-3.524c0-1.346.118-2.543.277-3.554ZM18.98 1.25H5.99c-.185 2.313-.367 8.672 3.902 13.665a15.42 15.42 0 0 0 2.593 2.405 15.42 15.42 0 0 0 2.592-2.405c4.27-4.994 4.088-11.352 3.903-13.666Z"/><path fill="#D3CFCA" d="M13.341 16.401h-1.724v2.876h1.724V16.4Z"/><path fill="#D3CFCA" d="M13.404 19.276h-1.852a.78.78 0 1 0 0 1.559h1.852a.78.78 0 1 0 0-1.559ZM14.926 27.913H10.03v.89h4.896v-.89ZM10.018 28.804l-2.497 1.41h9.916l-2.522-1.41h-4.897Z"/><path fill="#D3CFCA" d="M18.708 30.023H6.252v.686h12.456v-.686Z"/><path stroke="#C7C7C7" stroke-linecap="round" stroke-miterlimit="10" stroke-width="1.489" d="m21.76 6.366-.774-.028a2.038 2.038 0 0 1-1.963-2.112 2.466 2.466 0 0 1 4.928-.002l.006.15a4.58 4.58 0 0 1-1.695 3.731l-4.968 4.026a3.218 3.218 0 0 0-.623 4.327l.528.765M3.193 6.366l.774-.028A2.038 2.038 0 0 0 5.93 4.226a2.465 2.465 0 0 0-4.927-.002l-.007.15a4.58 4.58 0 0 0 1.696 3.731l4.968 4.026a3.218 3.218 0 0 1 .623 4.327l-.528.765"/><path fill="#2D292B" d="M13.635 20.835H11.32l2.202.8c.034-.278.07-.545.11-.8h.002Z"/><path stroke="#AAA197" stroke-linecap="round" stroke-miterlimit="10" stroke-width=".893" d="M11.75 19.276h1.46M11.777 16.636h1.277M11.498 27.765h1.943M10.164 28.804h3.851M8.05 30.023h7.593"/><path fill="#fff" d="M16.05 3.956H8.695v3.078h7.357V3.956Z"/><path fill="#2D292B" d="M21.258 39.214H3.698v1.25h17.56v-1.25Z"/><path stroke="#AAA197" stroke-linecap="round" stroke-miterlimit="10" stroke-width=".893" d="M5.783 39.214h9.604"/></g><defs><clipPath id="a"><path fill="#fff" d="M0 .823h24.706v40H0z"/></clipPath></defs></svg>