<svg xmlns="http://www.w3.org/2000/svg" width="40" height="41" fill="none"><path fill="#106DB6" d="M14.959 21.546 9.12 34.068l5.02-.71 3.93 3.882 3.363-14.822-6.474-.872Z"/><path fill="#106DB6" d="m24.724 21.585 6.156 12.48-5.02-.711-3.93 3.883-3.363-14.822 6.157-.83Z"/><path fill="#2D292B" d="m18.962 24.16.184 8.336 1.123-4.949-1.307-3.388Z"/><path fill="#D3CFCA" d="m20 4.41 2.971 2.159h3.674l1.134 3.493 2.972 2.159-1.135 3.493 1.135 3.493-2.972 2.16-1.134 3.493H22.97L20 27.018l-2.971-2.158h-3.674l-1.134-3.494-2.972-2.16 1.135-3.492-1.135-3.494 2.972-2.158 1.134-3.493h3.674L20 4.409Z"/><path fill="#D3CFCA" d="M20 23.364a7.651 7.651 0 1 0 0-15.302 7.651 7.651 0 0 0 0 15.302Z"/><path fill="#fff" d="M20 22.196a6.483 6.483 0 1 0 0-12.967 6.483 6.483 0 0 0 0 12.967Z"/><path stroke="#AAA197" stroke-linecap="round" stroke-miterlimit="10" stroke-width="1.775" d="M17.029 6.57h2.587M22.971 6.57l2.18 1.493M27.783 10.292l.778 2.373M29.616 15.714l-.876 2.365M27.78 21.366l-2.15 1.528M16.856 24.745l-2.297-1.52M12.22 21.364l-1.114-2.802M10.384 15.712l.722-2.846M12.22 10.062l2.34-2"/></svg>