<svg xmlns="http://www.w3.org/2000/svg" width="20" height="20" fill="none"><path fill="#0F3E6F" d="m11.347 4.883-4.723 10.48a.254.254 0 0 0 .108.35.29.29 0 0 0 .146.032h.585c.108 0 .21-.064.254-.165l2.294-5.168 2.304 5.174a.27.27 0 0 0 .248.165h.59a.258.258 0 0 0 .28-.241.217.217 0 0 0-.032-.14L10.59 9.11l1.282-2.888 4.166 9.358c.038.101.14.165.248.165h.59c.051 0 .096-.007.14-.032a.254.254 0 0 0 .108-.35L12.393 4.87a.32.32 0 0 0-.02-.055l-.179-.387a.279.279 0 0 0-.081-.107.252.252 0 0 0-.173-.058H11.794a.27.27 0 0 0-.248.165l-.177.387a.347.347 0 0 0-.022.07ZM1.64 0H18.36C19.27 0 20 .737 20 1.639V18.36C20 19.27 19.263 20 18.361 20H1.64A1.638 1.638 0 0 1 0 18.361V1.64C0 .737.73 0 1.639 0Zm6.986 4.814-.178-.387a.278.278 0 0 0-.254-.165h-.146a.263.263 0 0 0-.248.165l-4.922 10.93a.254.254 0 0 0 .108.35.29.29 0 0 0 .146.031h.59a.274.274 0 0 0 .249-.158L8.63 5.094a.291.291 0 0 0-.006-.28Z"/></svg>