<?xml version="1.0" encoding="UTF-8"?>
<svg id="Layer_1" data-name="Layer 1" xmlns="http://www.w3.org/2000/svg" xmlns:xlink="http://www.w3.org/1999/xlink" viewBox="0 0 1080 1080">
  <defs>
    <style>
      .cls-1 {
        fill: url(#linear-gradient);
      }

      .cls-1, .cls-2, .cls-3, .cls-4 {
        stroke-width: 0px;
      }

      .cls-2 {
        fill: #2c5f2d;
      }

      .cls-3 {
        fill: #fff;
      }

      .cls-4 {
        fill: #4a90e2;
      }
    </style>
    <linearGradient id="linear-gradient" x1="1197.17" y1="1158.22" x2="172.11" y2="57.59" gradientUnits="userSpaceOnUse">
      <stop offset="0" stop-color="#1b3a57"/>
      <stop offset=".12" stop-color="#254d76"/>
      <stop offset=".36" stop-color="#3971b0"/>
      <stop offset=".54" stop-color="#4587d4"/>
      <stop offset=".63" stop-color="#4a90e2"/>
    </linearGradient>
  </defs>
  <path class="cls-1" d="m864.04,670.55l-296.23,384.22c-14.06,18.23-41.56,18.23-55.61,0l-296.23-384.22c-125.59-162.89-110.73-393.7,34.73-539.15C330.56,51.5,435.28,11.56,540,11.56s209.44,39.94,289.32,119.84h.02c145.44,145.46,160.3,376.26,34.71,539.15Z"/>
  <path class="cls-3" d="m730.64,583.26h-377.24c-8.37-14.49-18.05-34.57-24.89-59.73-6.06-22.29-8.14-42.13-8.65-57.63,0-14.71,1.47-92.94,64.68-156.16,39.96-39.96,95.17-64.68,156.16-64.68h0c47.43,0,91.37,14.95,127.36,40.4,73.26,51.8,106.32,143.57,86.32,231.04-1.18,5.18-2.54,10.5-4.1,15.94-5.71,19.94-12.8,36.96-19.65,50.82Z"/>
  <polygon class="cls-4" points="697.89 455.71 697.89 480.54 539.52 371.93 382.11 479.88 382.11 455.05 539.52 347.12 697.89 455.71"/>
  <g>
    <path class="cls-2" d="m658.17,370.08c.05,15.48.12,30.98.18,46.46-12.05-7.86-24.1-15.74-36.15-23.61-.06-7.62-.12-15.24-.18-22.86"/>
    <rect class="cls-2" x="610.51" y="351.51" width="57.67" height="18.57" rx="2.04" ry="2.04"/>
  </g>
  <path class="cls-4" d="m646.78,462.25l-1.06,121h-76.17v-52.57c0-5.25-4.26-9.51-9.53-9.51h-37.41c-5.26,0-9.53,4.26-9.53,9.51v52.57h-79.63l-1.06-121,107.2-76.03,107.2,76.03Z"/>
  <path class="cls-3" d="m527.62,442.86v14.63c0,3.13-2.51,5.65-5.65,5.65h-17.77c-3.13,0-5.67-2.51-5.67-5.65v-14.63c0-3.11,2.53-5.65,5.67-5.65h17.77c3.13,0,5.65,2.53,5.65,5.65Z"/>
  <path class="cls-3" d="m580.8,442.86v14.63c0,3.13-2.53,5.65-5.65,5.65h-17.78c-3.11,0-5.65-2.51-5.65-5.65v-14.63c0-3.11,2.53-5.65,5.65-5.65h17.78c3.11,0,5.65,2.53,5.65,5.65Z"/>
  <path class="cls-3" d="m527.62,475.35v14.63c0,3.11-2.51,5.65-5.65,5.65h-17.77c-3.13,0-5.67-2.53-5.67-5.65v-14.63c0-3.13,2.53-5.65,5.67-5.65h17.77c3.13,0,5.65,2.51,5.65,5.65Z"/>
  <path class="cls-3" d="m580.8,475.35v14.63c0,3.11-2.53,5.65-5.65,5.65h-17.78c-3.11,0-5.65-2.53-5.65-5.65v-14.63c0-3.13,2.53-5.65,5.65-5.65h17.78c3.11,0,5.65,2.51,5.65,5.65Z"/>
</svg>